var techo_source = `
# Blender v2.79 (sub 0) OBJ File: ''
# www.blender.org
mtllib techo.mtl
o Face001
v 5000.000000 3000.000000 2500.000244
v 0.000000 5000.000000 2500.000244
v 0.000000 5000.000000 -2499.999756
v 5000.000000 3000.000000 -2499.999756
vn -0.3714 -0.9285 0.0000
usemtl color_cccccc
s off
f 1//1 2//1 3//1
f 1//1 3//1 4//1
o Face
v 0.000000 5000.000000 2500.000244
v -5000.000000 3000.000000 2500.000244
v -5000.000000 3000.000000 -2499.999756
v 0.000000 5000.000000 -2499.999756
vn 0.3714 -0.9285 0.0000
usemtl color_cccccc
s off
f 5//2 6//2 7//2
f 5//2 7//2 8//2
`
